<svg width="35" height="35" viewBox="0 0 35 35" fill="none" xmlns="http://www.w3.org/2000/svg">
<g filter="url(#filter0_f)">
<ellipse cx="17.0294" cy="17.4647" rx="16.0294" ry="16.4647" fill="white"/>
<path d="M32.5587 17.4647C32.5587 26.2944 25.5934 33.4294 17.0294 33.4294C8.46528 33.4294 1.5 26.2944 1.5 17.4647C1.5 8.63492 8.46528 1.5 17.0294 1.5C25.5934 1.5 32.5587 8.63492 32.5587 17.4647Z" stroke="#D85449"/>
</g>
<path d="M18.5699 10.6197L18.5697 10.6199L17.8648 11.4299L17.4877 11.8633L17.1105 11.4299L16.4056 10.6199L16.4051 10.6193C14.768 8.73179 12.1755 8.47248 10.4509 10.1114L18.5699 10.6197ZM18.5699 10.6197C20.2108 8.7315 22.7999 8.47268 24.5243 10.1113C26.5717 12.0602 26.6864 15.594 24.8421 17.7165L24.842 17.7166M18.5699 10.6197L24.842 17.7166M24.842 17.7166L17.9188 25.6887C17.9188 25.6887 17.9188 25.6888 17.9187 25.6888C17.6709 25.974 17.3009 25.974 17.053 25.6888C17.053 25.6888 17.0529 25.6887 17.0529 25.6887L10.1299 17.7168M24.842 17.7166L10.1299 17.7168M10.1299 17.7168C8.28888 15.5943 8.40362 12.0604 10.4509 10.1115L10.1299 17.7168Z" fill="#D85449" stroke="#D85449"/>
<defs>
<filter id="filter0_f" x="0" y="0" width="34.0587" height="34.9294" filterUnits="userSpaceOnUse" color-interpolation-filters="sRGB">
<feFlood flood-opacity="0" result="BackgroundImageFix"/>
<feBlend mode="normal" in="SourceGraphic" in2="BackgroundImageFix" result="shape"/>
<feGaussianBlur stdDeviation="0.5" result="effect1_foregroundBlur"/>
</filter>
</defs>
</svg>
