<svg width="26" height="26" viewBox="0 0 26 26" fill="none" xmlns="http://www.w3.org/2000/svg">
<path d="M25.5003 18.3975C24.379 17.3433 22.281 15.7574 22.281 10.5625C22.281 6.6168 19.1193 3.4582 14.856 2.68328V1.625C14.856 0.727695 14.0249 0 13 0C11.9751 0 11.144 0.727695 11.144 1.625V2.68328C6.88073 3.4582 3.71896 6.6168 3.71896 10.5625C3.71896 15.7574 1.62097 17.3433 0.499726 18.3975C0.151513 18.7251 -0.00286165 19.1166 4.01251e-05 19.5C0.00642403 20.3328 0.753341 21.125 1.86298 21.125H24.137C25.2467 21.125 25.9942 20.3328 26 19.5C26.0029 19.1166 25.8485 18.7246 25.5003 18.3975ZM3.91918 18.6875C5.15069 17.2671 6.49712 14.9129 6.5035 10.592C6.5035 10.5818 6.50002 10.5727 6.50002 10.5625C6.50002 7.42117 9.40992 4.875 13 4.875C16.5901 4.875 19.5 7.42117 19.5 10.5625C19.5 10.5727 19.4965 10.5818 19.4965 10.592C19.5029 14.9134 20.8493 17.2677 22.0808 18.6875H3.91918ZM13 26C15.0498 26 16.7125 24.5451 16.7125 22.75H9.28747C9.28747 24.5451 10.9502 26 13 26Z" fill="#676767"/>
</svg>
