<svg width="17" height="18" viewBox="0 0 17 18" fill="none" xmlns="http://www.w3.org/2000/svg">
<g clip-path="url(#clip0)">
<path d="M8.22738 17.6368C2.62982 10.2316 1.59082 9.47155 1.59082 6.75C1.59082 3.02206 4.90243 0 8.98754 0C13.0727 0 16.3843 3.02206 16.3843 6.75C16.3843 9.47155 15.3452 10.2316 9.74771 17.6368C9.38037 18.121 8.59467 18.121 8.22738 17.6368ZM8.98754 9.5625C10.6897 9.5625 12.0695 8.3033 12.0695 6.75C12.0695 5.1967 10.6897 3.9375 8.98754 3.9375C7.28541 3.9375 5.90557 5.1967 5.90557 6.75C5.90557 8.3033 7.28541 9.5625 8.98754 9.5625Z" fill="#686868"/>
</g>
<defs>
<clipPath id="clip0">
<rect x="0.78125" width="16" height="18" fill="white"/>
</clipPath>
</defs>
</svg>
