<svg width="10" height="10" viewBox="0 0 10 10" fill="none" xmlns="http://www.w3.org/2000/svg">
<g clip-path="url(#clip0)">
<path d="M9.76405 3.67691L6.52501 3.37651L5.23837 0.388833C5.1483 0.179634 4.85168 0.179634 4.7616 0.388833L3.47498 3.37652L0.235943 3.67691C0.00914611 3.69795 -0.0825139 3.98004 0.0885991 4.13035L2.53246 6.27726L1.81727 9.45062C1.76719 9.67281 2.00715 9.84714 2.20299 9.73085L5 8.07003L7.797 9.73085C7.99284 9.84714 8.23282 9.67281 8.18274 9.45062L7.46753 6.27726L9.91139 4.13035C10.0825 3.98004 9.99085 3.69795 9.76405 3.67691Z" fill="#FFDC64"/>
<path d="M5.23837 0.388833C5.1483 0.179634 4.85168 0.179634 4.7616 0.388833L3.47498 3.37652L0.235943 3.67691C0.00914611 3.69795 -0.0825138 3.98004 0.0885991 4.13035L2.53246 6.27726L1.81727 9.45062C1.76719 9.67281 2.00715 9.84714 2.20299 9.73085L2.82727 9.36017C2.91367 5.80351 4.56621 3.29889 5.87456 1.8661L5.23837 0.388833Z" fill="#FFC850"/>
<mask id="mask0" mask-type="alpha" maskUnits="userSpaceOnUse" x="0" y="0" width="10" height="10">
<path fill-rule="evenodd" clip-rule="evenodd" d="M4.7616 0.164533C4.85168 -0.0548442 5.1483 -0.0548442 5.23837 0.164533L5.87456 1.71367L6.52501 3.29756L9.76405 3.61258C9.99085 3.63464 10.0825 3.93046 9.91139 4.08808L7.46753 6.33944L8.18274 9.66719C8.23282 9.90018 7.99284 10.083 7.797 9.96106L5 8.21944L2.82727 9.57234L2.20299 9.96106C2.00715 10.083 1.76719 9.90018 1.81727 9.66719L2.53246 6.33944L0.0885991 4.08808C-0.0825138 3.93046 0.00914611 3.63464 0.235943 3.61258L3.47498 3.29758L4.7616 0.164533Z" fill="#FFC850"/>
</mask>
<g mask="url(#mask0)">
<rect x="5" y="-1.04858" width="5" height="11.5352" fill="#C4C4C4"/>
</g>
</g>
<defs>
<clipPath id="clip0">
<path d="M0 0H10V10H0V0Z" fill="white"/>
</clipPath>
</defs>
</svg>
