<svg width="48" height="48" viewBox="0 0 48 48" fill="none" xmlns="http://www.w3.org/2000/svg">
<path d="M24.0345 0C18.177 0 19.273 7.35999 20.0516 11.3983C20.8475 15.5195 21.6218 21.2505 24.0345 21.2505C26.4463 21.2505 27.2215 15.5195 28.0165 11.3983C28.796 7.35999 29.8911 0 24.0345 0Z" fill="#FFCC33"/>
<path d="M0.682423 11.9727C-2.24589 16.4918 5.45602 19.325 9.77518 20.7451C14.178 22.1929 20.1381 24.4616 21.3479 22.5984C22.5533 20.7367 17.3667 17.276 13.7555 14.5994C10.2193 11.9812 3.60987 7.45521 0.682423 11.9727Z" fill="#66CC33"/>
<path d="M0.64771 35.9734C3.57602 40.4909 10.1837 35.9657 13.7208 33.3467C17.3311 30.6717 22.5169 27.2094 21.3088 25.3477C20.1042 23.4853 14.1433 25.7548 9.73874 27.2017C5.42216 28.6218 -2.2806 31.4566 0.64771 35.9734Z" fill="#339999"/>
<path d="M23.9664 48.0001C29.823 48.0001 28.727 40.6401 27.9475 36.601C27.1534 32.4798 26.3782 26.7488 23.9664 26.7488C21.5511 26.7488 20.7785 32.4798 19.9835 36.601C19.2049 40.6401 18.1098 48.0001 23.9664 48.0001Z" fill="#4167B1"/>
<path d="M47.3196 36.0265C50.247 31.5074 42.5451 28.6749 38.2268 27.2541C33.8206 25.8064 27.8605 23.5384 26.655 25.3993C25.4487 27.2625 30.6353 30.7233 34.2431 33.3975C37.7836 36.0188 44.3913 40.5432 47.3196 36.0265Z" fill="#CC3399"/>
<path d="M47.3523 12.0257C44.4248 7.50742 37.8163 12.0334 34.2784 14.6524C30.6689 17.3274 25.4823 20.7897 26.6886 22.6514C27.8966 24.5138 33.8567 22.2443 38.2604 20.7974C42.5778 19.3773 50.2806 16.5425 47.3523 12.0257Z" fill="#FF6633"/>
</svg>
