<svg width="37" height="37" viewBox="0 0 37 37" fill="none" xmlns="http://www.w3.org/2000/svg">
<g filter="url(#filter0_f)">
<circle cx="18.5" cy="18.5" r="17.5" fill="white"/>
<circle cx="18.5" cy="18.5" r="17" stroke="#70BBF4"/>
</g>
<path d="M26.047 14.2367C26.0591 14.4226 26.0591 14.6086 26.0591 14.7945C26.0591 20.4656 22.1409 27 14.9797 27C12.7735 27 10.724 26.2961 9 25.0742C9.31346 25.1141 9.61483 25.1273 9.94036 25.1273C11.7608 25.1273 13.4366 24.45 14.7748 23.2945C13.0628 23.2547 11.6282 22.0195 11.1339 20.3195C11.375 20.3593 11.6161 20.3859 11.8693 20.3859C12.2189 20.3859 12.5686 20.3328 12.8941 20.2399C11.1098 19.8414 9.77154 18.1148 9.77154 16.0297V15.9766C10.2899 16.2953 10.8928 16.4945 11.5317 16.5211C10.4828 15.7507 9.79567 14.4359 9.79567 12.9484C9.79567 12.1515 9.98852 11.4211 10.3261 10.7836C12.243 13.3867 15.1244 15.0867 18.3553 15.2726C18.295 14.9539 18.2589 14.6219 18.2589 14.2898C18.2589 11.9258 19.9949 10 22.1529 10C23.2741 10 24.2868 10.518 24.9981 11.3547C25.8782 11.1688 26.7221 10.8101 27.4696 10.3188C27.1802 11.3149 26.5653 12.1516 25.7576 12.6828C26.5413 12.5899 27.3008 12.3508 28 12.0188C27.4696 12.8687 26.8065 13.6257 26.047 14.2367Z" fill="#70BBF4"/>
<defs>
<filter id="filter0_f" x="0" y="0" width="37" height="37" filterUnits="userSpaceOnUse" color-interpolation-filters="sRGB">
<feFlood flood-opacity="0" result="BackgroundImageFix"/>
<feBlend mode="normal" in="SourceGraphic" in2="BackgroundImageFix" result="shape"/>
<feGaussianBlur stdDeviation="0.5" result="effect1_foregroundBlur"/>
</filter>
</defs>
</svg>
