<svg width="65" height="65" viewBox="0 0 65 65" fill="none" xmlns="http://www.w3.org/2000/svg">
<g filter="url(#filter0_f)">
<circle cx="32.5" cy="32.5" r="31.5" fill="white"/>
<circle cx="32.5" cy="32.5" r="31" stroke="#70BBF4"/>
</g>
<path d="M46.0845 24.826C46.1062 25.1607 46.1062 25.4954 46.1062 25.8301C46.1062 36.038 39.0536 47.8 26.1634 47.8C22.1922 47.8 18.5031 46.5329 15.3999 44.3336C15.9641 44.4053 16.5066 44.4292 17.0925 44.4292C20.3693 44.4292 23.3857 43.21 25.7945 41.1301C22.713 41.0584 20.1306 38.8351 19.2409 35.7751C19.6749 35.8468 20.1089 35.8946 20.5647 35.8946C21.194 35.8946 21.8233 35.7989 22.4092 35.6317C19.1975 34.9144 16.7887 31.8067 16.7887 28.0534V27.9578C17.7218 28.5315 18.8069 28.8901 19.9569 28.9379C18.069 27.5513 16.8321 25.1846 16.8321 22.5071C16.8321 21.0727 17.1792 19.7579 17.7869 18.6104C21.2373 23.296 26.4238 26.356 32.2395 26.6907C32.131 26.1169 32.0659 25.5194 32.0659 24.9217C32.0659 20.6663 35.1908 17.2 39.0751 17.2C41.0933 17.2 42.9161 18.1323 44.1965 19.6384C45.7806 19.3037 47.2996 18.6582 48.6451 17.7737C48.1242 19.5667 47.0175 21.0728 45.5636 22.029C46.9742 21.8617 48.3413 21.4313 49.5999 20.8337C48.6452 22.3637 47.4516 23.7263 46.0845 24.826Z" fill="#70BBF4"/>
<defs>
<filter id="filter0_f" x="0" y="0" width="65" height="65" filterUnits="userSpaceOnUse" color-interpolation-filters="sRGB">
<feFlood flood-opacity="0" result="BackgroundImageFix"/>
<feBlend mode="normal" in="SourceGraphic" in2="BackgroundImageFix" result="shape"/>
<feGaussianBlur stdDeviation="0.5" result="effect1_foregroundBlur"/>
</filter>
</defs>
</svg>
